<svg width="271" height="201" viewBox="0 0 271 201" fill="none" xmlns="http://www.w3.org/2000/svg">
<path d="M270.05 129.34C270.05 141.815 266.781 154.072 260.57 164.891C254.359 175.709 245.422 184.712 234.65 191.002C223.877 197.293 211.644 200.651 199.17 200.743C186.695 200.835 174.414 197.658 163.55 191.527C156.246 196.894 147.559 200.058 138.515 200.646C129.471 201.234 120.447 199.221 112.51 194.846C102.664 198.771 92.1567 200.774 81.557 200.746C36.587 200.746 0.00299072 165.263 0.00299072 121.646C0.00299072 78.029 36.587 42.546 81.557 42.546H81.576C90.4776 27.6934 103.679 15.8933 119.433 8.70663C135.187 1.51998 152.751 -0.71453 169.803 2.29872C186.855 5.31197 202.59 13.431 214.927 25.5817C227.263 37.7324 235.621 53.3422 238.893 70.346C248.53 76.8667 256.413 85.6594 261.846 95.948C267.28 106.237 270.098 117.705 270.05 129.34ZM162.827 173.225C164.487 173.224 166.108 173.729 167.474 174.672C173.537 178.838 180.375 181.746 187.582 183.224C194.789 184.702 202.219 184.719 209.433 183.275C216.646 181.83 223.497 178.954 229.58 174.816C235.663 170.678 240.854 165.362 244.846 159.182C248.838 153.003 251.55 146.085 252.823 138.839C254.095 131.593 253.9 124.165 252.252 116.996C250.603 109.826 247.533 103.06 243.224 97.0971C238.914 91.1346 233.452 86.0969 227.162 82.282C226.13 81.6553 225.25 80.8085 224.584 79.802C223.918 78.7956 223.482 77.6544 223.308 76.46C221.183 61.9929 214.525 48.5723 204.292 38.1277C194.058 27.6832 180.776 20.7528 166.356 18.3331C151.935 15.9133 137.119 18.1289 124.036 24.6611C110.954 31.1934 100.281 41.7058 93.55 54.687C92.8221 56.0969 91.699 57.264 90.3181 58.0455C88.9372 58.827 87.3584 59.1889 85.775 59.087C84.155 58.987 82.812 58.939 81.55 58.939C45.616 58.939 16.381 87.072 16.381 121.65C16.381 156.228 45.62 184.36 81.55 184.36C91.2826 184.391 100.904 182.289 109.737 178.203C111.029 177.606 112.454 177.355 113.872 177.475C115.29 177.596 116.652 178.084 117.824 178.891C123.748 182.965 130.901 184.858 138.065 184.248C145.228 183.638 151.958 180.563 157.108 175.546C158.639 174.056 160.691 173.223 162.827 173.225Z" fill="#1071FF"/>
<path d="M92.193 92.675H80.014C79.5294 92.675 79.0647 92.8675 78.7221 93.2101C78.3795 93.5528 78.187 94.0174 78.187 94.502V123.123H78.218L94.018 107.323V94.503C94.0182 94.0186 93.8262 93.554 93.4839 93.2112C93.1417 92.8684 92.6774 92.6755 92.193 92.675Z" fill="#1071FF"/>
<path d="M142.074 79.325C140.222 77.4728 137.709 76.4322 135.09 76.4322C132.47 76.4322 129.958 77.4728 128.106 79.325L97.099 110.332L94.02 113.412L78.22 129.212L42.008 165.424C51.6782 172.495 63.062 176.855 74.9819 178.051C86.9018 179.248 98.925 177.239 109.808 172.231C111.1 171.635 112.524 171.385 113.942 171.505C115.359 171.626 116.721 172.114 117.893 172.92C123.816 176.994 130.97 178.887 138.133 178.277C145.296 177.667 152.026 174.591 157.175 169.574C158.535 168.253 160.311 167.443 162.2 167.284C164.09 167.125 165.976 167.625 167.538 168.7C176.862 175.122 187.944 178.506 199.265 178.386C210.586 178.266 221.594 174.65 230.78 168.032L142.074 79.325ZM134.359 153.892C134.359 154.263 134.211 154.619 133.949 154.882C133.686 155.144 133.33 155.292 132.959 155.292H121.582C121.211 155.292 120.855 155.144 120.592 154.882C120.329 154.619 120.182 154.263 120.182 153.892V142.515C120.182 142.144 120.329 141.788 120.592 141.525C120.855 141.263 121.211 141.115 121.582 141.115H132.959C133.33 141.115 133.686 141.263 133.949 141.525C134.211 141.788 134.359 142.144 134.359 142.515V153.892ZM134.359 136.662C134.359 137.033 134.211 137.389 133.949 137.652C133.686 137.915 133.33 138.062 132.959 138.062H121.582C121.211 138.062 120.855 137.915 120.592 137.652C120.329 137.389 120.182 137.033 120.182 136.662V125.285C120.182 124.914 120.329 124.558 120.592 124.295C120.855 124.033 121.211 123.885 121.582 123.885H132.959C133.33 123.885 133.686 124.033 133.949 124.295C134.211 124.558 134.359 124.914 134.359 125.285V136.662ZM152.606 153.892C152.606 154.263 152.458 154.619 152.196 154.882C151.933 155.144 151.577 155.292 151.206 155.292H139.829C139.458 155.292 139.102 155.144 138.839 154.882C138.576 154.619 138.429 154.263 138.429 153.892V142.515C138.429 142.144 138.576 141.788 138.839 141.525C139.102 141.263 139.458 141.115 139.829 141.115H151.206C151.577 141.115 151.933 141.263 152.196 141.525C152.458 141.788 152.606 142.144 152.606 142.515V153.892ZM152.606 136.662C152.606 137.033 152.458 137.389 152.196 137.652C151.933 137.915 151.577 138.062 151.206 138.062H139.829C139.458 138.062 139.102 137.915 138.839 137.652C138.576 137.389 138.429 137.033 138.429 136.662V125.285C138.429 124.914 138.576 124.558 138.839 124.295C139.102 124.033 139.458 123.885 139.829 123.885H151.206C151.577 123.885 151.933 124.033 152.196 124.295C152.458 124.558 152.606 124.914 152.606 125.285V136.662Z" fill="#1071FF"/>
</svg>
