<svg width="271" height="201" viewBox="0 0 271 201" fill="none" xmlns="http://www.w3.org/2000/svg">
<path d="M270.098 129.34C270.098 141.815 266.829 154.072 260.618 164.891C254.407 175.709 245.47 184.712 234.698 191.002C223.925 197.293 211.692 200.651 199.218 200.743C186.743 200.835 174.462 197.658 163.598 191.527C156.294 196.894 147.607 200.058 138.563 200.646C129.519 201.234 120.495 199.221 112.558 194.846C102.712 198.771 92.2043 200.774 81.6046 200.746C36.6346 200.746 0.0505981 165.263 0.0505981 121.646C0.0505981 78.029 36.6346 42.546 81.6046 42.546H81.6236C90.5252 27.6934 103.727 15.8933 119.481 8.70663C135.235 1.51998 152.799 -0.71453 169.851 2.29872C186.903 5.31197 202.638 13.431 214.975 25.5817C227.311 37.7324 235.669 53.3422 238.941 70.346C248.578 76.8667 256.461 85.6594 261.894 95.948C267.328 106.237 270.146 117.705 270.098 129.34ZM162.875 173.225C164.535 173.224 166.156 173.729 167.522 174.672C173.585 178.838 180.423 181.746 187.63 183.224C194.837 184.702 202.267 184.719 209.481 183.275C216.694 181.83 223.545 178.954 229.628 174.816C235.711 170.678 240.902 165.362 244.894 159.182C248.886 153.003 251.598 146.085 252.871 138.839C254.143 131.593 253.948 124.165 252.3 116.996C250.651 109.826 247.581 103.06 243.272 97.0971C238.962 91.1346 233.5 86.0969 227.21 82.282C226.178 81.6553 225.298 80.8085 224.632 79.802C223.966 78.7956 223.53 77.6544 223.356 76.46C221.231 61.9929 214.573 48.5723 204.34 38.1277C194.106 27.6832 180.824 20.7528 166.404 18.3331C151.983 15.9133 137.167 18.1289 124.084 24.6611C111.002 31.1934 100.329 41.7058 93.5976 54.687C92.8697 56.0969 91.7466 57.264 90.3657 58.0455C88.9848 58.827 87.406 59.1889 85.8226 59.087C84.2026 58.987 82.8596 58.939 81.5976 58.939C45.6636 58.939 16.4286 87.072 16.4286 121.65C16.4286 156.228 45.6676 184.36 81.5976 184.36C91.3302 184.391 100.952 182.289 109.785 178.203C111.077 177.606 112.502 177.355 113.92 177.475C115.338 177.596 116.7 178.084 117.872 178.891C123.796 182.965 130.949 184.858 138.113 184.248C145.276 183.638 152.006 180.563 157.156 175.546C158.687 174.056 160.739 173.223 162.875 173.225Z" fill="#1071FF"/>
<path d="M92.2406 92.675H80.0616C79.577 92.675 79.1123 92.8675 78.7697 93.2101C78.4271 93.5528 78.2346 94.0174 78.2346 94.502V123.123H78.2656L94.0656 107.323V94.503C94.0658 94.0186 93.8738 93.554 93.5315 93.2112C93.1893 92.8684 92.725 92.6755 92.2406 92.675Z" fill="#292C44"/>
<path d="M142.122 79.325C140.27 77.4728 137.757 76.4322 135.138 76.4322C132.518 76.4322 130.006 77.4728 128.154 79.325L97.1466 110.332L94.0676 113.412L78.2676 129.212L42.0556 165.424C51.7258 172.495 63.1096 176.855 75.0295 178.051C86.9494 179.248 98.9726 177.239 109.856 172.231C111.148 171.635 112.572 171.385 113.99 171.505C115.407 171.626 116.769 172.114 117.941 172.92C123.864 176.994 131.018 178.887 138.181 178.277C145.344 177.667 152.074 174.591 157.223 169.574C158.583 168.253 160.359 167.443 162.248 167.284C164.138 167.125 166.024 167.625 167.586 168.7C176.91 175.122 187.992 178.506 199.313 178.386C210.634 178.266 221.642 174.65 230.828 168.032L142.122 79.325ZM134.407 153.892C134.407 154.263 134.259 154.619 133.997 154.882C133.734 155.144 133.378 155.292 133.007 155.292H121.63C121.259 155.292 120.903 155.144 120.64 154.882C120.377 154.619 120.23 154.263 120.23 153.892V142.515C120.23 142.144 120.377 141.788 120.64 141.525C120.903 141.263 121.259 141.115 121.63 141.115H133.007C133.378 141.115 133.734 141.263 133.997 141.525C134.259 141.788 134.407 142.144 134.407 142.515V153.892ZM134.407 136.662C134.407 137.033 134.259 137.389 133.997 137.652C133.734 137.915 133.378 138.062 133.007 138.062H121.63C121.259 138.062 120.903 137.915 120.64 137.652C120.377 137.389 120.23 137.033 120.23 136.662V125.285C120.23 124.914 120.377 124.558 120.64 124.295C120.903 124.033 121.259 123.885 121.63 123.885H133.007C133.378 123.885 133.734 124.033 133.997 124.295C134.259 124.558 134.407 124.914 134.407 125.285V136.662ZM152.654 153.892C152.654 154.263 152.506 154.619 152.244 154.882C151.981 155.144 151.625 155.292 151.254 155.292H139.877C139.506 155.292 139.15 155.144 138.887 154.882C138.624 154.619 138.477 154.263 138.477 153.892V142.515C138.477 142.144 138.624 141.788 138.887 141.525C139.15 141.263 139.506 141.115 139.877 141.115H151.254C151.625 141.115 151.981 141.263 152.244 141.525C152.506 141.788 152.654 142.144 152.654 142.515V153.892ZM152.654 136.662C152.654 137.033 152.506 137.389 152.244 137.652C151.981 137.915 151.625 138.062 151.254 138.062H139.877C139.506 138.062 139.15 137.915 138.887 137.652C138.624 137.389 138.477 137.033 138.477 136.662V125.285C138.477 124.914 138.624 124.558 138.887 124.295C139.15 124.033 139.506 123.885 139.877 123.885H151.254C151.625 123.885 151.981 124.033 152.244 124.295C152.506 124.558 152.654 124.914 152.654 125.285V136.662Z" fill="#2C3E50"/>
</svg>
