<svg width="849" height="201" viewBox="0 0 849 201" fill="none" xmlns="http://www.w3.org/2000/svg">
<path d="M270.098 129.34C270.098 141.815 266.829 154.072 260.618 164.891C254.407 175.709 245.47 184.712 234.698 191.002C223.925 197.293 211.692 200.651 199.218 200.743C186.743 200.835 174.462 197.658 163.598 191.527C156.294 196.894 147.607 200.058 138.563 200.646C129.519 201.234 120.495 199.221 112.558 194.846C102.712 198.771 92.2043 200.774 81.6046 200.746C36.6346 200.746 0.0505981 165.263 0.0505981 121.646C0.0505981 78.029 36.6346 42.546 81.6046 42.546H81.6236C90.5252 27.6934 103.727 15.8933 119.481 8.70663C135.235 1.51998 152.799 -0.71453 169.851 2.29872C186.903 5.31197 202.638 13.431 214.975 25.5817C227.311 37.7324 235.669 53.3422 238.941 70.346C248.578 76.8667 256.461 85.6594 261.894 95.948C267.328 106.237 270.146 117.705 270.098 129.34ZM162.875 173.225C164.535 173.224 166.156 173.729 167.522 174.672C173.585 178.838 180.423 181.746 187.63 183.224C194.837 184.702 202.267 184.719 209.481 183.275C216.694 181.83 223.545 178.954 229.628 174.816C235.711 170.678 240.902 165.362 244.894 159.182C248.886 153.003 251.598 146.085 252.871 138.839C254.143 131.593 253.948 124.165 252.3 116.996C250.651 109.826 247.581 103.06 243.272 97.0971C238.962 91.1346 233.5 86.0969 227.21 82.282C226.178 81.6553 225.298 80.8085 224.632 79.802C223.966 78.7956 223.53 77.6544 223.356 76.46C221.231 61.9929 214.573 48.5723 204.34 38.1277C194.106 27.6832 180.824 20.7528 166.404 18.3331C151.983 15.9133 137.167 18.1289 124.084 24.6611C111.002 31.1934 100.329 41.7058 93.5976 54.687C92.8697 56.0969 91.7466 57.264 90.3657 58.0455C88.9848 58.827 87.406 59.1889 85.8226 59.087C84.2026 58.987 82.8596 58.939 81.5976 58.939C45.6636 58.939 16.4286 87.072 16.4286 121.65C16.4286 156.228 45.6676 184.36 81.5976 184.36C91.3302 184.391 100.952 182.289 109.785 178.203C111.077 177.606 112.502 177.355 113.92 177.475C115.338 177.596 116.7 178.084 117.872 178.891C123.796 182.965 130.949 184.858 138.113 184.248C145.276 183.638 152.006 180.563 157.156 175.546C158.687 174.056 160.739 173.223 162.875 173.225Z" fill="#1071FF"/>
<path d="M92.2406 92.675H80.0616C79.577 92.675 79.1123 92.8675 78.7697 93.2101C78.4271 93.5528 78.2346 94.0174 78.2346 94.502V123.123H78.2656L94.0656 107.323V94.503C94.0658 94.0186 93.8738 93.554 93.5315 93.2112C93.1893 92.8684 92.725 92.6755 92.2406 92.675Z" fill="#292C44"/>
<path d="M142.122 79.325C140.27 77.4728 137.757 76.4322 135.138 76.4322C132.518 76.4322 130.006 77.4728 128.154 79.325L97.1466 110.332L94.0676 113.412L78.2676 129.212L42.0556 165.424C51.7258 172.495 63.1096 176.855 75.0295 178.051C86.9494 179.248 98.9726 177.239 109.856 172.231C111.148 171.635 112.572 171.385 113.99 171.505C115.407 171.626 116.769 172.114 117.941 172.92C123.864 176.994 131.018 178.887 138.181 178.277C145.344 177.667 152.074 174.591 157.223 169.574C158.583 168.253 160.359 167.443 162.248 167.284C164.138 167.125 166.024 167.625 167.586 168.7C176.91 175.122 187.992 178.506 199.313 178.386C210.634 178.266 221.642 174.65 230.828 168.032L142.122 79.325ZM134.407 153.892C134.407 154.263 134.259 154.619 133.997 154.882C133.734 155.144 133.378 155.292 133.007 155.292H121.63C121.259 155.292 120.903 155.144 120.64 154.882C120.377 154.619 120.23 154.263 120.23 153.892V142.515C120.23 142.144 120.377 141.788 120.64 141.525C120.903 141.263 121.259 141.115 121.63 141.115H133.007C133.378 141.115 133.734 141.263 133.997 141.525C134.259 141.788 134.407 142.144 134.407 142.515V153.892ZM134.407 136.662C134.407 137.033 134.259 137.389 133.997 137.652C133.734 137.915 133.378 138.062 133.007 138.062H121.63C121.259 138.062 120.903 137.915 120.64 137.652C120.377 137.389 120.23 137.033 120.23 136.662V125.285C120.23 124.914 120.377 124.558 120.64 124.295C120.903 124.033 121.259 123.885 121.63 123.885H133.007C133.378 123.885 133.734 124.033 133.997 124.295C134.259 124.558 134.407 124.914 134.407 125.285V136.662ZM152.654 153.892C152.654 154.263 152.506 154.619 152.244 154.882C151.981 155.144 151.625 155.292 151.254 155.292H139.877C139.506 155.292 139.15 155.144 138.887 154.882C138.624 154.619 138.477 154.263 138.477 153.892V142.515C138.477 142.144 138.624 141.788 138.887 141.525C139.15 141.263 139.506 141.115 139.877 141.115H151.254C151.625 141.115 151.981 141.263 152.244 141.525C152.506 141.788 152.654 142.144 152.654 142.515V153.892ZM152.654 136.662C152.654 137.033 152.506 137.389 152.244 137.652C151.981 137.915 151.625 138.062 151.254 138.062H139.877C139.506 138.062 139.15 137.915 138.887 137.652C138.624 137.389 138.477 137.033 138.477 136.662V125.285C138.477 124.914 138.624 124.558 138.887 124.295C139.15 124.033 139.506 123.885 139.877 123.885H151.254C151.625 123.885 151.981 124.033 152.244 124.295C152.506 124.558 152.654 124.914 152.654 125.285V136.662Z" fill="#2C3E50"/>
<path d="M331.09 148.54C323.023 148.54 315.763 146.853 309.31 143.48C302.93 140.033 297.907 135.267 294.24 129.18C290.573 123.093 288.74 116.2 288.74 108.5C288.74 100.8 290.573 93.9067 294.24 87.82C297.907 81.7333 302.93 77.0033 309.31 73.63C315.763 70.1833 323.023 68.46 331.09 68.46C338.13 68.46 344.473 69.7067 350.12 72.2C355.767 74.6933 360.46 78.2867 364.2 82.98L350.34 95.52C345.353 89.5067 339.303 86.5 332.19 86.5C328.01 86.5 324.27 87.4167 320.97 89.25C317.743 91.0833 315.213 93.6867 313.38 97.06C311.62 100.36 310.74 104.173 310.74 108.5C310.74 112.827 311.62 116.677 313.38 120.05C315.213 123.35 317.743 125.917 320.97 127.75C324.27 129.583 328.01 130.5 332.19 130.5C339.303 130.5 345.353 127.493 350.34 121.48L364.2 134.02C360.46 138.713 355.767 142.307 350.12 144.8C344.473 147.293 338.13 148.54 331.09 148.54ZM372.921 65.38H393.821V147H372.921V65.38ZM468.343 117.3C468.343 117.447 468.233 119.17 468.013 122.47H424.673C425.553 125.55 427.24 127.933 429.733 129.62C432.3 131.233 435.49 132.04 439.303 132.04C442.163 132.04 444.62 131.637 446.673 130.83C448.8 130.023 450.927 128.703 453.053 126.87L464.053 138.31C458.26 144.763 449.79 147.99 438.643 147.99C431.677 147.99 425.553 146.67 420.273 144.03C414.993 141.39 410.887 137.723 407.953 133.03C405.093 128.337 403.663 123.02 403.663 117.08C403.663 111.213 405.057 105.97 407.843 101.35C410.703 96.6567 414.627 92.99 419.613 90.35C424.6 87.71 430.21 86.39 436.443 86.39C442.383 86.39 447.773 87.6367 452.613 90.13C457.453 92.55 461.267 96.1067 464.053 100.8C466.913 105.42 468.343 110.92 468.343 117.3ZM436.553 101.24C433.327 101.24 430.613 102.157 428.413 103.99C426.287 105.823 424.93 108.317 424.343 111.47H448.763C448.177 108.317 446.783 105.823 444.583 103.99C442.457 102.157 439.78 101.24 436.553 101.24ZM501.778 86.39C511.678 86.39 519.232 88.6633 524.438 93.21C529.645 97.6833 532.248 104.577 532.248 113.89V147H512.778V139.3C509.772 145.093 503.905 147.99 495.178 147.99C490.558 147.99 486.562 147.183 483.188 145.57C479.815 143.957 477.248 141.793 475.488 139.08C473.802 136.293 472.958 133.14 472.958 129.62C472.958 123.973 475.122 119.61 479.448 116.53C483.775 113.377 490.448 111.8 499.468 111.8H511.348C510.982 105.493 506.765 102.34 498.698 102.34C495.838 102.34 492.942 102.817 490.008 103.77C487.075 104.65 484.582 105.897 482.528 107.51L475.488 93.32C478.788 91.12 482.785 89.4333 487.478 88.26C492.245 87.0133 497.012 86.39 501.778 86.39ZM501.008 134.79C503.428 134.79 505.555 134.203 507.388 133.03C509.222 131.857 510.542 130.133 511.348 127.86V122.69H502.328C496.242 122.69 493.198 124.707 493.198 128.74C493.198 130.573 493.895 132.04 495.288 133.14C496.682 134.24 498.588 134.79 501.008 134.79ZM584.27 86.39C591.677 86.39 597.617 88.59 602.09 92.99C606.637 97.39 608.91 104.027 608.91 112.9V147H588.01V116.31C588.01 108.17 584.747 104.1 578.22 104.1C574.627 104.1 571.73 105.273 569.53 107.62C567.404 109.967 566.34 113.487 566.34 118.18V147H545.44V87.38H565.35V93.87C567.697 91.45 570.484 89.6167 573.71 88.37C576.937 87.05 580.457 86.39 584.27 86.39Z" fill="#1071FF"/>
<path d="M661.412 148.54C653.346 148.54 646.086 146.853 639.632 143.48C633.252 140.033 628.229 135.267 624.562 129.18C620.896 123.093 619.062 116.2 619.062 108.5C619.062 100.8 620.896 93.9067 624.562 87.82C628.229 81.7333 633.252 77.0033 639.632 73.63C646.086 70.1833 653.346 68.46 661.412 68.46C668.452 68.46 674.796 69.7067 680.442 72.2C686.089 74.6933 690.782 78.2867 694.522 82.98L680.662 95.52C675.676 89.5067 669.626 86.5 662.512 86.5C658.332 86.5 654.592 87.4167 651.292 89.25C648.066 91.0833 645.536 93.6867 643.702 97.06C641.942 100.36 641.062 104.173 641.062 108.5C641.062 112.827 641.942 116.677 643.702 120.05C645.536 123.35 648.066 125.917 651.292 127.75C654.592 129.583 658.332 130.5 662.512 130.5C669.626 130.5 675.676 127.493 680.662 121.48L694.522 134.02C690.782 138.713 686.089 142.307 680.442 144.8C674.796 147.293 668.452 148.54 661.412 148.54ZM703.243 87.38H724.143V147H703.243V87.38ZM713.693 80.78C709.88 80.78 706.8 79.7167 704.453 77.59C702.107 75.4633 700.933 72.8233 700.933 69.67C700.933 66.5167 702.107 63.8767 704.453 61.75C706.8 59.6233 709.88 58.56 713.693 58.56C717.507 58.56 720.587 59.5867 722.933 61.64C725.28 63.62 726.453 66.1867 726.453 69.34C726.453 72.64 725.28 75.39 722.933 77.59C720.587 79.7167 717.507 80.78 713.693 80.78ZM778.866 144.58C777.106 145.68 774.942 146.523 772.376 147.11C769.882 147.697 767.206 147.99 764.346 147.99C756.572 147.99 750.596 146.083 746.416 142.27C742.236 138.457 740.146 132.773 740.146 125.22V105.2H731.456V89.58H740.146V74.07H761.046V89.58H774.686V105.2H761.046V125C761.046 127.127 761.596 128.813 762.696 130.06C763.869 131.233 765.409 131.82 767.316 131.82C769.736 131.82 771.862 131.197 773.696 129.95L778.866 144.58ZM848.661 87.38L822.921 149.42C819.914 156.753 816.247 161.887 811.921 164.82C807.594 167.827 802.314 169.33 796.081 169.33C792.927 169.33 789.737 168.817 786.511 167.79C783.357 166.837 780.791 165.553 778.811 163.94L786.071 149.31C787.244 150.41 788.637 151.253 790.251 151.84C791.937 152.5 793.624 152.83 795.311 152.83C797.291 152.83 798.904 152.427 800.151 151.62C801.471 150.813 802.571 149.53 803.451 147.77L777.931 87.38H799.381L814.011 123.79L828.751 87.38H848.661Z" fill="#2C3E50"/>
</svg>
